<svg id="Layer_1" xmlns="http://www.w3.org/2000/svg" xmlns:xlink="http://www.w3.org/1999/xlink" viewBox="0 0 600 600" style="enable-background:new 0 0 600 600"><style>.st0{fill:#fff}.st1{opacity:.5;fill:#fff}</style><g id="eXnHk4.tif_5_"><g><path class="st0" d="M153.77 442.06c-54.72-31.25-99.19-73.08-138.52-120.79C4.31 308 3.82 300.83 14.64 287.56c53.3-65.39 116.82-117.15 197.7-144.64 63.57-21.61 127.15-20.49 190 3.61 5.67 2.17 8.77 1.49 12.76-3.15 36.26-42.19 72.79-84.15 109.29-126.15 8.16-9.39 20.51-10.6 29.44-3.06 8.8 7.43 9.18 19.66.69 29.43-61.86 71.15-123.76 142.27-185.65 213.39C278.25 361.09 187.63 465.21 97.02 569.33c-1.81 2.08-3.61 4.18-5.48 6.21-8.27 8.99-19.35 9.85-28.24 2.21-8.16-7.01-9.43-19.37-2.16-28.08 12.52-15 25.44-29.65 38.23-44.42 17.1-19.75 34.23-39.46 51.34-59.2C151.66 444.95 152.48 443.74 153.77 442.06zM380.41 181.95c-.77-.9-.87-1.13-1.04-1.2-.77-.34-1.54-.67-2.33-.94-46.64-15.88-93.62-16.3-140.8-2.7-52.47 15.13-97.21 43.8-137.38 79.95-15.89 14.3-30.57 29.93-46.13 45.28 37.62 43.82 78.19 81.81 128.67 108.56 13.28-15.28 26.18-30.13 39.05-44.94-1.47-2.15-2.57-3.71-3.62-5.3-18.11-27.6-23.04-57.29-12.38-88.65 19.93-58.6 85.73-84.62 141.42-56.56 1.57.79 4.88.81 5.8-.22C361.41 204.33 370.83 193.14 380.41 181.95zM248.44 333.92c24.69-28.34 49.02-56.28 73.42-84.3-20.53-11.18-50.81-4.15-67.87 15.4C237.29 284.15 234.57 315.08 248.44 333.92z"/><path class="st1" d="M234.51 473.17c10.28-11.73 19.95-22.89 29.82-33.88.9-1 3.04-1.48 4.51-1.31 57.31 6.59 109.73-8.45 159.03-36.42 43.44-24.65 80.65-56.96 113.49-94.44.82-.94 1.56-1.96 2.66-3.35-26.21-31.23-55.51-58.99-89.13-83.46 8.98-10.29 17.67-20.24 27.36-31.35 15.82 13.5 32.13 25.81 46.49 40.08 19.39 19.27 37.45 39.89 55.71 60.26 8.05 8.98 8.26 18.48.89 27.73-53.13 66.69-117.06 119.08-198.5 147.52-48.44 16.92-98.01 21.16-148.46 9.75C237.41 474.08 236.47 473.75 234.51 473.17z"/></g></g></svg>