<svg xmlns="http://www.w3.org/2000/svg" viewBox="0 0 453.54 453.54" xmlns:v="https://vecta.io/nano"><path d="M-5.84.8h459.38v459.38H-5.84z" fill="#172951"/><g fill="#fff"><path d="M117.88 331.1c-40.62-23.2-73.63-54.25-102.82-89.66-8.12-9.85-8.48-15.17-.45-25.02 39.57-48.53 86.7-86.95 146.74-107.36 47.18-16.04 94.38-15.2 141.03 2.68 4.2 1.6 6.5 1.1 9.47-2.34l81.12-93.63c6.06-6.97 15.22-7.87 21.85-2.27 6.53 5.52 6.8 14.6.5 21.84L71.7 430.18c-6.14 6.68-14.36 7.3-20.96 1.64-6.06-5.2-7-14.38-1.6-20.84 9.3-11.13 18.88-22 28.37-32.97l38.1-43.94c.7-.84 1.32-1.74 2.27-2.98zM286.1 138.02c-.57-.67-.65-.84-.77-.9-.57-.25-1.14-.5-1.73-.7-34.62-11.8-69.5-12.1-104.5-2-38.94 11.23-72.15 32.5-101.97 59.35-11.8 10.6-22.7 22.22-34.24 33.6 27.92 32.52 58.03 60.72 95.5 80.58l28.98-33.36-2.68-3.93c-13.44-20.48-17.1-42.53-9.2-65.8 14.8-43.5 63.63-62.8 104.97-41.98 1.16.6 3.62.6 4.3-.16 7.23-8.1 14.23-16.42 21.34-24.72zm-97.95 112.8l54.5-62.57c-15.24-8.3-37.7-3.08-50.38 11.43-12.4 14.2-14.42 37.16-4.12 51.14z"/><path d="M177.8 354.18l22.13-25.15c.67-.75 2.26-1.1 3.35-.98 42.54 4.9 81.44-6.27 118.04-27.04 32.25-18.3 59.87-42.28 84.24-70.1.6-.7 1.16-1.46 1.98-2.5-19.45-23.18-41.2-43.78-66.16-61.95l20.3-23.27c11.74 10.02 23.85 19.16 34.5 29.75 14.4 14.3 27.8 29.6 41.35 44.73 5.98 6.67 6.13 13.7.66 20.58-39.43 49.5-86.88 88.4-147.34 109.5-35.95 12.56-72.75 15.7-110.2 7.24-.7-.15-1.4-.4-2.87-.82z" opacity=".5"/></g></svg>
